<svg fill="none" xmlns="http://www.w3.org/2000/svg" viewBox="0 0 57 57"><g clip-path="url(#a)" fill="#000"><path d="M14.25 27.566V42.75h15.184l-3.167-3.167h-8.85v-8.85l-3.167-3.167Z"/><path d="m55.21 51.126-4.543-4.608v4.149H6.333v-6.571H9.5v-2.533H6.333v-10.53H9.5V28.5H6.333V18.367H9.5v-2.534H6.333v-8.85l25.239 25.095v-4.465L5.874 2.043a1.583 1.583 0 0 0-2.707 1.124V52.25a1.584 1.584 0 0 0 1.583 1.583h49.337a1.583 1.583 0 0 0 1.124-2.707Z"/><path d="M38 47.5h6.333a3.167 3.167 0 0 0 3.167-3.167V13.775l-3.642-6.698a3.166 3.166 0 0 0-2.786-1.583 3.167 3.167 0 0 0-2.787 1.71l-3.452 6.603v30.526A3.167 3.167 0 0 0 38 47.5Zm0-32.933 3.072-5.97 3.261 5.986V38H38V14.567Zm0 26.014h6.333v3.863H38v-3.863Z"/></g><defs><clipPath id="a"><path fill="#fff" d="M0 0h57v57H0z"/></clipPath></defs></svg>