<svg fill="none" xmlns="http://www.w3.org/2000/svg" viewBox="0 0 30 40"><path d="M24.898 3.282A15.762 15.762 0 0 0 15.23 0C12.2 0 9.233.87 6.637 2.522c-6.112 4-7.848 12.35-3.87 18.615l11.745 18.468a.851.851 0 0 0 1.57-.456V20a.851.851 0 0 0-.851-.851 5.464 5.464 0 0 1-3.962-1.685 5.584 5.584 0 0 1-1.572-4.101c.146-2.812 2.466-5.131 5.275-5.279a5.475 5.475 0 0 1 4.071 1.523 5.496 5.496 0 0 1 1.72 4.01.851.851 0 0 0 1.701 0 7.183 7.183 0 0 0-2.245-5.241 7.166 7.166 0 0 0-5.33-1.992c-3.673.193-6.7 3.22-6.892 6.905a7.277 7.277 0 0 0 2.048 5.357 7.145 7.145 0 0 0 4.335 2.156v15.423l-10.176-16C.722 14.74 2.232 7.439 7.56 3.952a14.27 14.27 0 0 1 7.67-2.25c3.146 0 6.131 1.013 8.626 2.927 4.639 3.617 5.812 10.238 2.731 15.399l-3.574 5.915a.851.851 0 0 0 1.457.88l3.577-5.919c3.522-5.9 2.17-13.474-3.15-17.622Z" fill="#fff"/></svg>