<svg fill="none" xmlns="http://www.w3.org/2000/svg" viewBox="0 0 40 40"><g clip-path="url(#a)"><path d="M31.638 8.51H16.745a.851.851 0 0 0 0 1.703h14.893c4.224 0 7.66 3.436 7.66 7.66v12.765c0 4.224-3.436 7.66-7.66 7.66H10.362c-4.224 0-7.66-3.436-7.66-7.66V17.872c0-4.108 3.25-7.47 7.315-7.652l10.381 10.382a.85.85 0 0 0 1.204 0l6.383-6.383a.85.85 0 1 0-1.204-1.204L21 18.796 10.963 8.76a.851.851 0 0 0-.601-.25C5.2 8.51 1 12.71 1 17.873v12.766C1 35.8 5.2 40 10.362 40h21.276C36.8 40 41 35.8 41 30.638V17.872c0-5.162-4.2-9.361-9.362-9.361Z" fill="#fff"/></g><defs><clipPath id="a"><path fill="#fff" d="M0 0h40v40H0z"/></clipPath></defs></svg>