<svg fill="none" xmlns="http://www.w3.org/2000/svg" viewBox="0 0 40 40"><g clip-path="url(#a)"><path d="M17.982-.921A.867.867 0 0 0 17.368.56l.263.264C7.265 1.012-1.11 9.497-1.11 19.908-1.111 30.435 7.454 39 17.982 39s19.092-8.565 19.092-19.092a.867.867 0 1 0-1.735 0c0 9.57-7.786 17.356-17.357 17.356S.624 29.478.624 19.908c0-9.444 7.584-17.134 16.98-17.338l-.236.235a.868.868 0 0 0 1.227 1.227l1.736-1.736a.868.868 0 0 0 0-1.227L18.595-.666a.865.865 0 0 0-.613-.255ZM6.685 9.493l.037.904a21.693 21.693 0 0 0 3.013 10.162c1.941 2.986 4.493 5.498 7.586 7.59a21.699 21.699 0 0 0 10.171 3.017l.904.038v-5.628c0-.801-.48-1.516-1.221-1.817L23.2 22.136a1.96 1.96 0 0 0-2.194.495l-3.375 3.638a20.12 20.12 0 0 1-6.025-6.012l3.64-3.365a1.97 1.97 0 0 0 .505-2.205l-1.622-3.973a1.959 1.959 0 0 0-1.818-1.22H6.685Zm1.83 1.736h3.797c.093 0 .177.056.212.142l1.622 3.973a.234.234 0 0 1-.068.265l-3.376 3.121a19.996 19.996 0 0 1-2.188-7.501ZM22.44 23.727a.243.243 0 0 1 .104.015l3.975 1.623a.23.23 0 0 1 .14.211v3.798a19.981 19.981 0 0 1-7.508-2.19l3.137-3.382a.224.224 0 0 1 .152-.075Z" fill="#fff"/></g><defs><clipPath id="a"><path fill="#fff" d="M0 0h40v40H0z"/></clipPath></defs></svg>