<svg fill="none" xmlns="http://www.w3.org/2000/svg" viewBox="0 0 57 57"><path d="M28.5 5.344A17.908 17.908 0 0 0 10.593 23.25c0 14.915 17.907 28.405 17.907 28.405s17.907-13.49 17.907-28.405A17.908 17.908 0 0 0 28.5 5.344v0Zm.083.95c2.6 1.306 6.888 4.465 8.372 8.823-1.188 4.002-5.213 7.636-8.313 9.025v-4.548c-2.517.831-7.706 6.044-7.991 8.728.64 2.886 5.759 7.885 7.896 8.431 0 0-.059-4.073 0-4.251 8.752 0 13.205-8.17 13.158-13.205-.047-5.035-2.114-10.2-6.317-12.588a17.373 17.373 0 0 1 9.5 15.331A16.328 16.328 0 0 1 28.5 38.368h-1.188c-16.41-2.612-14.404-26.125 1.188-27.372l.083-4.702Z" stroke="#000" stroke-linecap="round" stroke-linejoin="round"/></svg>