<svg fill="none" xmlns="http://www.w3.org/2000/svg" viewBox="0 0 57 57"><g clip-path="url(#a)"><path d="M26.307 7.303c.133 0 .3.067.445.267-.646-.924.724-.523.802-1.402.779-.58.5-.958.723-.98l.245-.2c-.478.178-.645.211-.779.211h-.223c-.167 0-.445.033-1.102.234-1.503.111-2.583 1.737-3.095 1.781-.523.278-.5.334-.378.334.033 0 .078-.011.122-.011.045 0 .078-.011.111-.011.123 0 .09.055-.623.39.167.044-1.247.667-1.258 1.647-.044.379.111.635.367.635.223 0 .501-.167.802-.59 1.002-1.158 3.117-1.27 4.03-1.97-.568-.045-.456-.335-.19-.335Zm-5.088.39c-.1 0 .034-.123.178-.245.156-.123.334-.245.334-.245l-.01.011c.6-.234.233-.29.556-.445h-.023c-.066 0 .056-.09.168-.19.11-.089.211-.189.11-.189-.055 0-.2.034-.445.134.078-.112.379-.19.802-.423-.612.2-1.091.323-1.147.323-.044 0 .212-.09.98-.323.034 0 .067.01.09.01.077 0 .11-.021.1-.044-.012-.022-.056-.033-.134-.033-1.102.09-1.926.78-1.681.868a1.2 1.2 0 0 1 .311-.066c.145 0 .078.122-.211.3.134.312-2.227 1.113-2.494 1.403.134-.078.223-.1.267-.1.178 0-.055.345-.29.512.146.133.257.178.346.178.234 0 .334-.323.534-.423.045.089.09.133.145.133.19 0 .423-.467.612-.712.056.056.123.1.212.1.178 0 .445-.145.868-.556-.089.01-.156.022-.178.022ZM18.66 9.74c-.401.245-.613.345-.702.345-.167 0 .056-.311.256-.634.2-.312.379-.624.123-.624-.123 0-.345.067-.702.245-.968.646-2.605 2.427-3.328 2.427h-.067c1.169-.857.824-2.538 2.46-2.972 1.614-.924 2.717-.635 4.153-1.692-.423.211-1.047.445-1.192.445-.088 0 .045-.111.624-.39-.056.011-.1.022-.134.022-.39 0 2.56-1.057 2.706-1.08-1.214.168-3.173 1.18-3.44 1.18-.034 0-.034-.01-.034-.033.045-.033.045-.055 0-.055-.145 0-.746.2-1.358.4-.601.2-1.213.412-1.347.412-.045 0-.045-.022.022-.066-5.255 2.983-9.64 8.015-11.01 13.982.568 1.303.178 3.786 1.113 4.51 1.069.9-.913 3.517-.39 5.131.535 2.917 2.84 4.91 3.084 7.893.423 2.049 1.97 4.554 2.617 5.856.49.49 1.836 1.904 2.07 1.904.09 0 .034-.212-.323-.78-.222-.634-1.514-2.293-.89-2.293a.42.42 0 0 1 .111.011c-.768-.779 1.703-.567-.022-1.625-.2-.245-.245-.323-.2-.323.055 0 .21.09.389.178.19.09.412.179.59.179.278 0 .468-.19.356-.88.045.022.09.022.123.022.29 0 .19-.567.211-1.135.023-.568.167-1.136.947-1.136.089 0 .189.011.29.023 1.803-.98.233-3.686 2.304-4.676-.078-2.25-3.095-2.36-4.23-3.273a1.03 1.03 0 0 1-.546.144c-.2 0-.379-.044-.535-.1-.156-.044-.3-.1-.4-.1-.023 0-.045 0-.067.011 1.937-.512.523-3.206-1.08-3.206h-.112c-.122-1.17-.723-.724-.79-1.692-.1.055-.2.078-.3.078-.268 0-.513-.19-.724-.368-.212-.189-.39-.367-.546-.367-.122 0-.234.122-.334.479.112-.546.078-.724-.033-.724s-.312.19-.534.379c-.212.189-.457.378-.646.378h-.056c-1.302-.924.011-2.56-.679-3.819.445-.478.623-1.291.423-1.291-.1 0-.3.2-.612.746-.446-1.136.735-3.707 1.736-3.852.034 0 .056-.011.09-.011.178 0 .356.089.512.278.089.523-.134 1.625-.045 1.625.045 0 .134-.222.356-.801.29-1.325 2.316-2.282 2.527-3.095.012.011.012.011.023.011.234 0 1.736-1.325 2.393-1.47.256-.255.434-.345.568-.345.145 0 .223.112.278.212.056.111.1.212.156.212.045 0 .1-.067.2-.257-.344-.679.546-1.324.301-1.324-.089 0-.356.089-.902.311a.414.414 0 0 1-.155.056c-.067 0 .2-.178.59-.356.39-.178.88-.356 1.291-.356.2 0 .379.044.512.155 1.726-.411.78-.98.869-.98h.022c.49-.289.345-1.38 1.069-2.059Zm-7.715 4.553c-.023 0 .077-.144.411-.556.69-.512 1.247-.857.613-1.191.278-.123.545-.268.801-.423-.01.545-.467 1.87-.712 1.87-.056 0-.112-.078-.134-.245.145-.256.156-.356.1-.356-.089 0-.345.222-.59.456-.245.212-.467.445-.49.445Zm.634.301c-.3 0-.245-.19.68-.378.4-.056.088-.034.567-.145-.468.378-.99.523-1.247.523Zm17.312-1.124c.133-.023.233-.023.311-.023.323 0 .178.134-.01.268-.19.133-.424.267-.29.267.078 0 .29-.045.723-.167 2.194-.156-.857-2.015-.367-2.639l-.134-.044c-.901 1.147.602 1.169-.233 2.338Zm-.913.044c.156 0 .356-.178.567-.679.29-.345.168-.39-.144-.556-.857.222-.78 1.235-.423 1.235Zm7.681 3.53c-.033 0-.055.01-.078.022.09.022.179.044.268.044a.478.478 0 0 0-.19-.067Zm14.952 2.771c.189.412.29.58.3.58.078 0-1.402-3.608-2.015-4.253-3.195-5.255-8.45-9.274-14.439-10.777h-.011c-.156 0 .022.078.234.156.211.078.467.156.467.156s-.167-.056-.679-.2a8.4 8.4 0 0 0-1.736-.335c-.1.034 2.438 1.036 4.14 1.559-.567-.178-1.157-.334-1.302-.334-.1 0 0 .067.412.245-.5-.145-.712-.212-.735-.212-.033 0 .668.234 1.325.468.668.234 1.303.468 1.125.468-.045 0-.167-.023-.356-.056.567.312.768.434.734.434-.055 0-.757-.334-1.48-.668-.713-.334-1.437-.668-1.537-.668-.055 0 .09.111.58.4.667.29 1.335.58 1.146.58-.09 0-.345-.056-.846-.2 1.113.567-.79.345-.145 1.113-.356-.334-.501-.446-.534-.446-.034 0 .055.134.144.268.09.133.156.267.078.267h-.022c.78.846-.545.089.4.846-.712-.323-1.925-.857-1.38-.857.134 0 .39.033.79.122-.723-.846-2.771-.88-2.816-.98-.512.034-.523.423-.434 1.136-.011 1.124-1.113 1.147-.969 1.792 0-.01.012-.01.012-.01.022 0 .033.222.1.456.078.222.211.456.5.456.157 0 .357-.067.602-.234.345.624.657.846.902.846.367 0 .59-.5.567-.957-.4-.223-.924-2.07-.345-2.07.09 0 .2.044.345.144-.901 2.215 3.563.735 1.036 1.748.568.746-.357.712-.09 1.614-.433.123-.912.234-1.335.234-.624 0-1.102-.267-1.047-1.203-.779.412.78 1.804-.768 1.804h-.089c-.746 1.37-3.54.902-1.347 2.35.123.634-.278.745-.79.745-.134 0-.279-.011-.424-.022-.144-.011-.289-.011-.422-.011-.58 0-.991.144-.635 1.046-.256.935.345 1.347 1.08 1.347.89 0 1.981-.579 2.06-1.536.478-.724 1.09-1.024 1.725-1.024 1.002 0 2.06.757 2.75 1.692.055.089.1.122.122.122.056 0 0-.222-.022-.445-.022-.178-.022-.356.044-.412-.99-.278-1.747-1.48-1.413-1.48.11 0 .345.133.723.49h.056c.623 0 1.113.489 1.492.979.39.49.679.98.935.98.1 0 .2-.09.29-.29a1.856 1.856 0 0 1-.212-.445c-.067-.234-.067-.468.234-.468.122 0 .289.045.523.134.757-.2-.479-2.171.523-2.171.1 0 .223.022.379.067-.012.345.144.467.289.467.29 0 .579-.412-.122-.534.267-.256.423-.356.534-.356.39 0 .078 1.291 1.425 1.291.456 1.08-3.963.078-2.55 2.149.323.233.724.278 1.114.278.122 0 .234 0 .345-.011.111 0 .223-.011.323-.011.69 0 1.18.167.88 1.592-.368.267-.78.356-1.203.356-.379 0-.757-.067-1.125-.134-.367-.066-.723-.133-1.046-.133-.501 0-.902.167-1.147.746-1.302-.535-3.017-.557-2.85-2.171-2.27.323-4.642.156-6.312 1.547-.1 2.038-3.596 2.694-2.75 5.01-1.013 2.137 1.225 5.132 3.507 5.132.078 0 .167 0 .245-.01 1.247-.012 2.505-.569 3.607-.569.568 0 1.08.145 1.525.59.1-.01.19-.022.267-.022 1.704 0-.545 2.705 1.492 3.162 1.848 1.915-1.135 3.885.323 5.722.156 1.436.868 2.639.868 4.041.19.023.368.034.557.034 2.35 0 3.819-2.049 5.2-3.596-.424-2.316 3.283-2.772 2.014-5.366-.59-2.84 2.794-4.52 2.605-7.359.034-.4-.078-.523-.245-.523-.167 0-.412.122-.645.234-.245.122-.513.233-.724.233-.278 0-.49-.189-.512-.812-1.637-1.526-2.383-3.596-3.908-5.277 1.982.957 3.106 3.117 4.02 5.076a.87.87 0 0 0 .244.034c1.614 0 3.863-3.863 1.414-4.799-.134.368-.312.501-.523.501-.368 0-.79-.445-1.091-.88-.3-.444-.457-.89-.29-.89.112 0 .356.178.78.646.478.3.946.379 1.436.379.478 0 .968-.078 1.48-.123.646.256.924 1.08 1.125 1.08.033 0 .078-.034.111-.111.512 1.224 1.102 3.406 1.637 3.996-.279-1.87-.345-3.852-.824-5.689Zm-6.212-2.571c-1.258-.323-1.67-1.882-2.661-2.784-.011-.244.356-.2.267-.612 1.336.412.902.824.78.902.49.813 1.859 1.37 1.614 2.494Zm-17.29-8.472c-1.213.356-1.38-.034-1.169.712.09.067.256.09.424.09.59.01 1.391-.335.745-.802Zm17.824 30.67c1.592-1.346 1.792-2.95 1.87-4.575-.712 1.392-2.827 2.928-1.87 4.576Zm-7.247-21.708c-.012.01-.012.01-.012.022.012.022.023.022.023.022s0-.011-.011-.044ZM28.5 0C12.758 0 0 12.758 0 28.5S12.758 57 28.5 57 57 44.242 57 28.5 44.242 0 28.5 0Zm0 54.807c-14.528 0-26.307-11.779-26.307-26.307 0-14.528 11.779-26.307 26.307-26.307 14.528 0 26.307 11.779 26.307 26.307 0 14.528-11.779 26.307-26.307 26.307Z" fill="#000"/></g><defs><clipPath id="a"><path fill="#fff" d="M0 0h57v57H0z"/></clipPath></defs></svg>